<svg version="1.1" id="Layer_1" xmlns="http://www.w3.org/2000/svg" xmlns:xlink="http://www.w3.org/1999/xlink" x="0px" y="0px"
	 width="100%" viewBox="0 0 1024 1024" enable-background="new 0 0 1024 1024" xml:space="preserve">
<path fill="#1f1e1e" opacity="1.000000" stroke="none" 
	d="
M799.376526,513.245605 
	C797.120239,536.163391 791.973938,557.979553 784.446716,579.221191 
	C766.930969,628.650208 737.359741,669.628052 697.156860,703.087891 
	C671.539429,724.408569 643.002808,740.576111 611.510010,751.506165 
	C608.996521,752.378418 606.492737,753.303467 603.761475,753.291260 
	C598.061951,753.265747 594.668640,750.110901 594.635559,744.463989 
	C594.605408,739.309204 593.367126,733.488647 595.331543,729.178650 
	C597.416199,724.604919 604.096863,724.534607 608.780640,722.574280 
	C659.226196,701.461243 700.037964,668.575439 729.950256,622.701233 
	C751.085571,590.287537 764.385254,554.828735 768.871033,516.237671 
	C769.236145,513.096985 769.259949,509.857086 770.095520,506.844421 
	C771.417175,502.079376 769.540283,501.122498 765.169861,501.136871 
	C734.339600,501.238251 703.508728,501.160156 672.678040,501.111237 
	C670.561584,501.107880 668.344482,501.494568 665.931458,499.915222 
	C666.843201,494.429016 669.570984,489.437958 671.191040,484.121063 
	C673.656677,476.029510 673.722900,475.998505 682.380737,476.049011 
	C709.205017,476.205444 736.028931,476.418579 762.853149,476.578217 
	C771.009705,476.626770 771.090698,476.568970 770.609192,468.610443 
	C767.332214,414.440918 750.608032,365.219971 716.282166,322.650635 
	C675.858276,272.518890 623.892090,240.802963 560.571838,229.719894 
	C497.184723,218.625153 438.400574,232.782227 384.874084,268.239014 
	C336.581909,300.228546 302.943115,343.954254 283.673828,398.453400 
	C274.863800,423.370636 270.818390,449.325836 271.088684,475.749969 
	C272.856903,477.242249 274.771118,476.693054 276.538086,476.678101 
	C304.863464,476.438385 333.190125,476.251373 361.511963,475.779327 
	C366.353882,475.698608 368.803253,477.063568 369.792694,481.990204 
	C371.067047,488.335449 374.439514,493.996368 377.154968,499.661743 
	C375.252228,501.943085 373.110840,501.216980 371.241974,501.220886 
	C355.410339,501.253998 339.576630,501.325592 323.747986,501.088837 
	C319.318848,501.022583 317.989838,502.510834 318.129578,506.874176 
	C318.534515,519.515991 316.617981,517.652771 329.065765,517.724731 
	C346.563629,517.825867 364.063568,517.827026 381.560303,517.645935 
	C385.315674,517.607178 387.756348,518.781616 389.844910,521.903687 
	C393.826782,527.856018 398.191498,533.546997 403.026031,538.859924 
	C403.996246,539.926086 405.272797,540.908691 405.215149,542.656189 
	C403.508057,544.650940 401.192444,543.978394 399.137207,543.993652 
	C384.306213,544.103699 369.474030,544.204224 354.643402,544.116272 
	C350.820770,544.093628 349.289734,545.376221 349.330261,549.325684 
	C349.466797,562.633667 348.186279,560.598083 360.648071,561.113220 
	C380.639984,561.939514 400.633728,561.440918 420.625031,561.663086 
	C428.053009,561.745667 437.298981,570.970276 437.316254,578.486877 
	C437.373688,603.484619 437.426849,628.482910 437.293427,653.480042 
	C437.255005,660.680603 438.754303,666.717712 446.027924,669.872681 
	C448.348663,670.879333 448.188263,673.009216 448.189880,675.009155 
	C448.196106,682.675110 448.232605,690.341675 448.149353,698.006836 
	C448.089386,703.526123 447.097504,704.146729 441.832245,702.149353 
	C416.632050,692.589294 393.965881,678.757141 373.697021,661.075806 
	C344.482361,635.590698 321.730804,605.400391 307.771698,568.964539 
	C306.956909,566.837708 305.758728,564.759827 306.159454,561.858948 
	C311.621765,560.412231 317.273010,561.170776 322.837952,561.067200 
	C335.444336,560.832520 333.356140,562.136902 333.784729,550.001404 
	C333.936371,545.708374 332.596222,543.993103 328.130585,544.145142 
	C320.307404,544.411438 312.466003,544.094727 304.636414,544.242798 
	C301.194824,544.307861 299.445282,542.971069 298.772736,539.602600 
	C297.697937,534.219543 296.409637,528.877197 295.123169,523.539001 
	C294.262054,519.965637 294.789215,517.549622 299.219696,517.768005 
	C301.775818,517.893982 302.843903,516.515625 302.711334,514.057251 
	C302.702393,513.891235 302.718781,513.723938 302.716797,513.557373 
	C302.542542,499.120148 304.634460,501.095154 290.926147,501.128113 
	C286.426575,501.138947 281.926727,501.106384 277.427399,501.140717 
	C271.191132,501.188293 270.876587,501.333618 271.381348,507.710815 
	C272.700043,524.371704 276.349121,540.574524 281.226105,556.541321 
	C298.683838,613.696106 331.561035,659.762512 380.567902,694.021851 
	C399.629456,707.347290 420.488190,717.469421 442.351685,725.389526 
	C446.445374,726.872498 448.378357,728.924988 448.020660,733.316956 
	C447.750916,736.629028 448.029175,739.981689 447.905670,743.310425 
	C447.618317,751.053833 442.565399,754.856384 435.126740,752.652466 
	C426.332642,750.047058 417.864746,746.524231 409.514343,742.735901 
	C376.097046,727.575684 345.821350,707.773621 320.563049,680.979187 
	C280.579529,638.564026 254.563400,588.871521 244.627335,531.215149 
	C235.202042,476.522644 240.983673,423.248108 262.244202,372.056458 
	C289.702240,305.942169 336.149506,257.301971 400.319641,225.566284 
	C430.659058,210.561752 462.727905,201.891678 496.380554,198.552994 
	C553.729675,192.863358 606.752441,206.384109 656.598328,234.152924 
	C694.828247,255.450592 726.171082,284.521637 751.053650,320.338837 
	C777.350037,358.191223 793.422119,400.275543 798.972046,446.030151 
	C801.657043,468.165894 802.557251,490.517365 799.376526,513.245605 
M400.136566,631.584656 
	C400.995880,630.167114 402.007050,628.818542 402.688232,627.319946 
	C405.618134,620.873901 405.349365,614.574158 400.619629,609.149231 
	C396.119446,603.987610 390.385559,601.210449 383.292053,602.825623 
	C375.563080,604.585388 369.998657,610.764648 369.126587,618.359131 
	C368.266846,625.845947 371.919006,632.956970 378.329651,636.278320 
	C385.369598,639.925720 392.752197,638.498657 400.136566,631.584656 
z"/>
<path fill="#1f1e1e" opacity="1.000000" stroke="none" 
	d="
M561.936340,596.988892 
	C561.947021,578.326172 562.068176,560.159973 561.896790,541.996521 
	C561.854187,537.491150 563.082886,534.839966 567.444580,532.717957 
	C592.554504,520.501465 611.821594,502.301483 623.149109,476.400848 
	C642.540161,432.062592 630.614868,380.349091 594.231018,348.440247 
	C573.773071,330.498535 550.409424,319.874207 523.158630,319.508270 
	C469.167389,318.783234 424.170166,355.369080 412.302887,408.875610 
	C408.716156,425.047150 408.834076,441.163055 412.831879,457.309174 
	C414.371948,457.144073 413.679077,455.750793 414.122620,455.018738 
	C416.262817,451.486206 418.671722,448.045685 423.322876,448.479828 
	C428.071167,448.923004 431.096985,451.746582 432.318695,456.562012 
	C435.487427,469.051819 441.472931,480.103027 449.818512,489.892029 
	C456.811676,498.094727 465.015228,504.849243 474.488647,509.974182 
	C477.943726,511.843292 479.387390,514.283630 479.502411,518.301086 
	C480.341797,547.621277 479.758392,576.944946 479.987793,606.265076 
	C480.017731,610.094666 478.698151,611.671265 474.736694,611.472473 
	C470.093933,611.239441 465.419281,611.386108 460.770569,611.614380 
	C457.526642,611.773682 456.383057,610.574341 456.367279,607.295532 
	C456.295990,592.468872 455.698547,577.637390 455.973236,562.820251 
	C456.081451,556.984192 453.913849,554.037903 449.080383,551.165588 
	C416.470398,531.787048 394.456970,503.741119 385.365662,466.978577 
	C372.830139,416.288544 384.782867,370.926361 420.814484,333.158600 
	C447.142273,305.562256 480.487061,290.991058 518.745178,291.265717 
	C569.104370,291.627258 610.285828,312.360260 638.036621,354.663666 
	C684.439819,425.401062 658.636108,515.398315 590.558533,552.731934 
	C587.106689,554.624878 585.972961,556.854919 586.021606,560.620483 
	C586.213135,575.450439 586.008850,590.286011 586.249207,605.114624 
	C586.326172,609.863708 584.759399,611.730347 579.919128,611.443298 
	C575.279419,611.168091 570.596619,611.506409 565.938110,611.701660 
	C563.232117,611.815125 561.858704,610.794373 561.906494,607.984680 
	C561.966003,604.486084 561.932251,600.985840 561.936340,596.988892 
M422.736481,452.779541 
	C420.882874,453.320526 418.714722,453.514709 418.800262,456.487091 
	C421.062775,457.808380 423.406067,457.647827 425.043579,455.820831 
	C426.411835,454.294250 425.159607,453.137207 422.736481,452.779541 
z"/>
<path fill="#1f1e1e" opacity="1.000000" stroke="none" 
	d="
M633.925598,686.004639 
	C622.928894,692.759460 611.649475,698.094727 599.855103,702.326904 
	C594.792847,704.143311 593.858887,703.483887 593.832397,698.276794 
	C593.793457,690.610840 593.847168,682.944275 593.897278,675.278198 
	C593.911621,673.089661 593.941956,670.791748 596.404236,669.756165 
	C603.530579,666.759033 604.495361,660.448425 604.536560,653.987122 
	C604.691772,629.655518 604.615540,605.322388 604.645996,580.989868 
	C604.659729,569.979431 613.003662,561.769470 624.111267,561.679016 
	C647.770081,561.486267 671.428589,561.253906 695.087036,561.021118 
	C700.946899,560.963501 701.603943,560.353149 701.569153,554.286255 
	C701.507751,543.577820 703.079407,544.215149 691.822266,544.191040 
	C675.156372,544.155334 658.490540,544.120239 641.824646,544.069458 
	C640.036560,544.064026 638.118408,544.435364 636.753784,542.772583 
	C636.656494,540.609497 638.256104,539.434937 639.372131,538.062988 
	C643.890686,532.508179 648.804016,527.253662 652.420471,521.017639 
	C653.970398,518.345154 656.296997,517.731262 659.169678,517.734802 
	C686.835388,517.769104 714.501404,517.796143 742.166626,517.664551 
	C746.120972,517.645752 747.027893,519.009155 746.357727,522.717834 
	C739.021484,563.315613 723.458313,600.106201 696.849731,632.023743 
	C678.953735,653.490295 658.177979,671.457458 633.925598,686.004639 
M666.461487,606.997070 
	C660.077271,601.891602 653.340881,600.889893 646.141052,605.248230 
	C637.977417,610.190002 635.047180,620.664307 639.591980,628.668213 
	C644.714783,637.690125 654.550842,640.611694 663.437378,635.750977 
	C674.250854,629.836487 675.853271,617.131470 666.461487,606.997070 
z"/>
<path fill="#1f1e1e" opacity="1.000000" stroke="none" 
	d="
M494.409241,441.118591 
	C495.964478,446.524445 495.875031,451.529633 493.283386,456.052765 
	C491.340881,459.443054 492.031860,461.717102 494.583832,464.318787 
	C499.947388,469.786713 504.988464,475.570312 510.328796,481.062012 
	C513.513428,484.336945 514.712830,487.741394 514.688293,492.564240 
	C514.522705,525.044739 514.859375,557.527832 515.034180,590.010071 
	C515.062866,595.341309 514.898010,600.683533 515.191223,606.000305 
	C515.412048,610.004272 514.295654,611.863586 509.934021,611.483826 
	C505.965210,611.138245 501.918671,611.121948 497.951508,611.471741 
	C493.629425,611.852844 492.639557,610.090332 492.659760,606.055115 
	C492.805664,576.899902 491.757324,547.697021 493.136261,518.606323 
	C493.899567,502.503845 489.492889,490.430786 477.484436,480.162872 
	C471.445282,474.999023 466.373627,468.681366 461.013123,462.751099 
	C452.271240,453.080109 453.628632,438.033936 463.755554,431.052795 
	C474.620819,423.562714 488.672546,428.007233 494.409241,441.118591 
z"/>
<path fill="#1f1e1e" opacity="1.000000" stroke="none" 
	d="
M526.959595,592.998718 
	C526.921631,558.999878 526.927856,525.500427 526.789062,492.001587 
	C526.773560,488.267181 527.680115,485.336029 530.292664,482.568695 
	C536.009888,476.512695 541.370789,470.121765 547.013794,463.993378 
	C549.194763,461.624756 549.679504,459.624695 548.159546,456.484161 
	C543.607178,447.077911 546.828674,436.238342 555.407959,430.603607 
	C563.299927,425.420319 574.304016,426.906708 580.945251,434.053131 
	C588.007324,441.652374 588.640747,452.811981 581.673035,460.932281 
	C572.347656,471.800201 562.579407,482.295380 552.792969,492.755646 
	C550.081116,495.654175 548.931030,498.613861 548.948669,502.553253 
	C549.099915,536.385315 549.107239,570.218018 549.137512,604.050537 
	C549.144043,611.344666 549.106812,611.344727 542.064636,611.368591 
	C527.101746,611.419250 527.101562,611.419250 526.978027,596.498535 
	C526.969727,595.498474 526.966675,594.498352 526.959595,592.998718 
z"/>
<path fill="#1f1e1e" opacity="1.000000" stroke="none" 
	d="
M501.000000,753.854614 
	C525.796631,753.866150 550.093323,753.863708 574.389954,753.900696 
	C580.948914,753.910645 581.340881,754.479187 579.700134,760.783569 
	C574.922058,779.142822 563.550171,790.943359 545.038208,795.647156 
	C544.715759,795.729126 544.399841,795.899658 544.077332,795.909302 
	C527.639404,796.400574 511.056885,798.141479 494.823822,795.140076 
	C477.217682,791.884827 460.971924,771.104614 461.843628,753.855469 
	C474.679932,753.855469 487.589966,753.855469 501.000000,753.854614 
z"/>
<path fill="#1f1e1e" opacity="1.000000" stroke="none" 
	d="
M555.000000,653.956055 
	C524.012695,653.971802 493.525360,654.000549 463.038025,653.997864 
	C456.244598,653.997253 455.951294,653.658508 455.973602,647.005432 
	C455.988708,642.507385 456.155548,638.004089 455.991638,633.512756 
	C455.841461,629.397156 457.640259,627.916687 461.661407,627.966187 
	C472.654968,628.101685 483.651489,627.989624 494.646851,627.985779 
	C522.802002,627.975952 550.957214,627.960510 579.112366,627.973328 
	C585.685669,627.976318 585.951660,628.249146 586.069336,634.630249 
	C586.149170,638.960693 586.167175,643.293152 586.146240,647.624329 
	C586.117126,653.643982 585.773865,653.966919 579.490295,653.977539 
	C571.493530,653.990967 563.496765,653.966187 555.000000,653.956055 
z"/>
<path fill="#1f1e1e" opacity="1.000000" stroke="none" 
	d="
M528.000122,712.669189 
	C540.821838,712.674011 553.145020,712.568604 565.464844,712.723999 
	C573.392395,712.824036 578.067627,717.500916 578.289429,725.036011 
	C578.483215,731.618652 575.380371,735.786926 568.957825,737.326782 
	C567.196045,737.749207 565.337585,737.943909 563.523193,737.945557 
	C534.550476,737.972412 505.577789,737.935425 476.605103,737.954102 
	C471.157562,737.957642 466.856659,736.132324 464.381744,730.991882 
	C462.033508,726.114441 462.853455,721.570496 466.000549,717.405884 
	C468.874542,713.602722 473.035004,712.670471 477.546875,712.673462 
	C494.197937,712.684509 510.848999,712.672668 528.000122,712.669189 
z"/>
<path fill="#1f1e1e" opacity="1.000000" stroke="none" 
	d="
M532.000000,670.855591 
	C543.149414,670.862122 553.800354,670.764893 564.447632,670.919495 
	C569.843079,670.997742 574.759460,672.568848 577.229797,677.963440 
	C581.020508,686.241333 576.361145,694.262085 567.264587,695.538025 
	C560.770020,696.448975 554.307251,695.393005 547.828430,695.399170 
	C523.700867,695.422180 499.573151,695.442200 475.445831,695.357788 
	C468.251282,695.332581 463.576263,690.997864 463.047791,684.312012 
	C462.536346,677.841614 466.742004,672.596130 473.627350,671.359070 
	C475.737335,670.980042 477.928589,670.948242 480.083313,670.940308 
	C494.726135,670.886475 509.369141,670.881226 524.012085,670.861023 
	C526.508057,670.857605 529.004028,670.857605 532.000000,670.855591 
z"/>
<path fill="#1f1e1e" opacity="1.000000" stroke="none" 
	d="
M439.368134,407.352386 
	C438.644226,411.015869 438.018127,414.281189 437.344452,417.536652 
	C436.480194,421.713043 433.515167,423.461975 429.670197,423.023010 
	C425.772003,422.577972 423.367065,420.119934 423.577454,415.850647 
	C424.244110,402.322510 429.637451,390.317169 436.136475,378.832001 
	C445.216797,362.785126 458.250641,350.607635 474.401337,341.750946 
	C478.071350,339.738434 481.906281,338.135681 485.999542,337.215271 
	C488.660187,336.616974 491.315552,336.582794 493.801483,337.888428 
	C498.669220,340.444946 499.122498,345.738647 494.455902,348.595917 
	C491.515228,350.396393 488.024567,351.271301 484.883636,352.776428 
	C461.553406,363.955658 446.836121,382.387207 439.368134,407.352386 
M485.071167,346.392822 
	C486.856720,346.213989 488.662415,346.145386 490.421722,345.823273 
	C491.972534,345.539337 492.815430,344.417084 491.974854,342.943359 
	C490.646362,340.614166 488.382202,340.830627 486.319122,341.624634 
	C484.328308,342.390900 481.937836,343.325775 485.071167,346.392822 
z"/>
<path fill="#1f1e1e" opacity="1.000000" stroke="none" 
	d="
M716.078491,419.273285 
	C706.967896,419.047363 699.107056,422.617584 690.899475,424.488739 
	C687.476501,425.269135 684.614563,425.368347 682.538574,422.215271 
	C680.278992,418.783142 680.634216,415.262878 682.766174,411.916351 
	C684.004517,409.972534 686.115906,409.281616 688.236206,408.746796 
	C692.418457,407.691925 696.595520,406.612366 700.796936,405.638916 
	C705.167542,404.626251 709.162170,403.522430 712.330811,399.615875 
	C715.593201,395.593719 722.111389,395.393158 726.561218,398.044159 
	C731.032166,400.707764 733.268799,405.975433 732.012207,410.882538 
	C730.738464,415.856995 726.161133,419.248016 720.531494,419.357910 
	C719.203613,419.383820 717.874146,419.325531 716.078491,419.273285 
z"/>
<path fill="#1f1e1e" opacity="1.000000" stroke="none" 
	d="
M313.540588,399.539490 
	C319.485046,395.133484 326.507355,395.401428 330.780243,400.488464 
	C332.975800,403.102386 335.369537,404.488068 338.589203,405.201019 
	C343.931274,406.384033 349.237793,407.771362 354.486969,409.317963 
	C359.683319,410.848999 361.429993,414.376434 360.081787,419.770844 
	C358.836945,424.751495 355.333710,425.186859 351.176025,424.210724 
	C346.330963,423.073273 341.503815,421.859131 336.673279,420.660522 
	C332.302002,419.575836 327.912415,418.913239 323.370972,419.330719 
	C318.105408,419.814819 313.904083,417.948914 311.313782,413.146362 
	C308.665894,408.237000 309.951141,403.862610 313.540588,399.539490 
z"/>
<path fill="#1f1e1e" opacity="1.000000" stroke="none" 
	d="
M698.435303,369.449280 
	C701.017578,364.326935 705.016541,361.750092 710.261292,362.039337 
	C714.245178,362.259064 717.513489,364.428925 719.161682,368.368317 
	C721.773010,374.609833 718.516846,381.728516 711.667236,382.430359 
	C703.731262,383.243561 697.201965,387.070984 690.204834,390.006042 
	C687.901672,390.972107 685.657349,392.128143 683.282776,392.863251 
	C679.337341,394.084686 675.975281,393.351532 674.203064,389.136902 
	C672.485229,385.051849 673.841248,380.795471 677.770203,378.935394 
	C684.521912,375.738953 691.763611,373.621979 698.435303,369.449280 
z"/>
<path fill="#1f1e1e" opacity="1.000000" stroke="none" 
	d="
M322.790100,368.947021 
	C327.011383,361.051910 334.828156,359.177917 339.909821,365.338257 
	C343.795837,370.049103 348.739960,372.151550 353.860352,374.435455 
	C356.748383,375.723602 359.746124,376.781372 362.573517,378.186249 
	C367.367554,380.568268 368.970673,384.589447 367.041504,388.831848 
	C365.217743,392.842377 361.307281,394.229126 356.489868,392.334381 
	C353.085999,390.995544 349.770569,389.421326 346.459808,387.858734 
	C341.824371,385.670959 337.406006,383.313782 332.058472,382.648621 
	C324.942902,381.763611 321.964203,376.887817 322.790100,368.947021 
z"/>
<path fill="#1f1e1e" opacity="1.000000" stroke="none" 
	d="
M722.727844,457.220154 
	C711.723633,455.263855 701.050537,456.441925 690.422974,456.219635 
	C683.927185,456.083801 681.002075,453.929535 681.058411,449.176971 
	C681.125366,443.529388 684.033203,440.957642 690.505127,440.744110 
	C700.630066,440.410065 710.762573,441.255188 720.895508,439.834473 
	C726.739441,439.015106 730.759399,442.187195 731.342102,446.723083 
	C732.045532,452.198669 729.411987,455.573853 722.727844,457.220154 
z"/>
<path fill="#1f1e1e" opacity="1.000000" stroke="none" 
	d="
M353.671204,444.164917 
	C351.433258,444.844666 348.913940,445.491089 349.559174,447.974976 
	C350.693207,452.340607 354.898712,451.440918 358.525299,451.798035 
	C357.599335,455.535339 354.955383,455.817230 352.286896,455.863953 
	C344.796387,455.995178 337.304474,456.052612 329.812927,456.118011 
	C327.150818,456.141235 324.518341,456.137360 321.891693,456.846558 
	C317.933105,457.915375 314.741882,456.667694 312.310547,453.283722 
	C310.146271,450.271484 309.854156,447.133270 311.433868,443.877502 
	C313.239136,440.156708 316.680176,439.183441 320.304596,439.800507 
	C329.571686,441.378143 338.903809,440.421722 348.191040,440.924530 
	C350.366791,441.042267 352.582794,441.118103 354.517303,442.142761 
	C356.500946,443.193481 355.400177,443.774994 353.671204,444.164917 
z"/>
<path fill="#1f1e1e" opacity="1.000000" stroke="none" 
	d="
M697.734863,347.792480 
	C688.604614,351.568604 681.498047,357.911652 673.542969,362.885406 
	C669.909973,365.156891 666.433228,365.793304 663.513550,361.770111 
	C661.169617,358.540253 661.738647,353.920593 665.312561,351.107727 
	C668.159668,348.866913 671.468872,347.207764 674.598022,345.332123 
	C678.804321,342.810791 683.260986,340.950317 685.709106,335.930237 
	C687.532166,332.191803 693.140503,331.952057 696.773987,334.476715 
	C701.162598,337.526215 701.584412,342.009338 697.734863,347.792480 
z"/>
<path fill="#1f1e1e" opacity="1.000000" stroke="none" 
	d="
M378.910278,354.640991 
	C379.897583,358.771912 378.387878,361.488159 375.316376,363.520081 
	C372.241333,365.554260 369.591583,364.200653 367.042450,362.426605 
	C362.673737,359.386353 358.331116,356.308258 353.997803,353.217743 
	C352.238617,351.963104 350.512970,350.799469 348.355774,350.150208 
	C343.856934,348.796204 341.555359,345.606842 341.659180,340.820862 
	C341.752014,336.542297 344.032562,333.905518 348.079712,333.068817 
	C352.635101,332.127075 355.899109,334.297699 357.725739,338.345612 
	C358.715942,340.539978 360.477112,341.450104 362.282318,342.657471 
	C367.867432,346.392792 374.872192,348.135254 378.910278,354.640991 
z"/>
<path fill="#1f1e1e" opacity="1.000000" stroke="none" 
	d="
M533.267883,258.421570 
	C533.334717,261.168884 533.571106,263.492828 532.806702,265.767120 
	C530.746033,271.898102 525.243835,275.760803 519.600342,274.992859 
	C513.222290,274.125000 508.237946,268.685242 507.743866,262.053040 
	C507.269318,255.683441 511.211426,249.424820 516.623535,247.955414 
	C523.481079,246.093567 529.371826,248.789368 532.292114,255.168915 
	C532.702759,256.065979 532.923279,257.050079 533.267883,258.421570 
z"/>
<path fill="#1f1e1e" opacity="1.000000" stroke="none" 
	d="
M415.720367,284.927917 
	C414.322235,279.757446 415.250061,275.542908 419.302032,272.492981 
	C422.953369,269.744598 426.845428,270.409607 430.558380,272.548920 
	C434.716705,274.944824 435.846436,278.802002 435.249237,283.259003 
	C434.610352,288.026978 431.501221,290.482605 426.992523,291.377594 
	C421.787567,292.410736 418.958435,290.847748 415.720367,284.927917 
z"/>
<path fill="#1f1e1e" opacity="1.000000" stroke="none" 
	d="
M464.821960,273.466248 
	C458.733337,280.381714 450.873108,280.396301 447.219604,273.832275 
	C444.693939,269.294556 445.327423,263.608521 448.703339,260.514282 
	C451.918396,257.567505 457.699005,257.313446 461.686859,259.943665 
	C465.918396,262.734558 467.084320,267.335052 464.821960,273.466248 
z"/>
<path fill="#1f1e1e" opacity="1.000000" stroke="none" 
	d="
M676.516235,311.710297 
	C678.517273,316.555084 677.795105,320.521484 674.014160,323.711945 
	C670.218933,326.914490 664.319214,326.591797 660.860107,323.086426 
	C657.914551,320.101501 657.794861,313.648895 660.621033,310.196289 
	C663.626282,306.524902 669.291687,305.557709 673.219116,308.213531 
	C674.418457,309.024536 675.295349,310.312408 676.516235,311.710297 
z"/>
<path fill="#1f1e1e" opacity="1.000000" stroke="none" 
	d="
M403.245056,304.502869 
	C397.424683,307.297302 393.393829,306.658936 390.480530,302.791626 
	C387.801666,299.235535 387.930878,293.027802 390.750854,289.803009 
	C393.624969,286.516327 398.530609,285.844238 402.570251,288.156342 
	C407.689911,291.086609 409.544922,299.610870 403.245056,304.502869 
z"/>
<path fill="#1f1e1e" opacity="1.000000" stroke="none" 
	d="
M365.130920,311.445282 
	C370.145844,305.921356 375.827850,305.309937 379.953644,309.527863 
	C383.627655,313.283936 383.418427,319.673096 379.501190,323.342804 
	C376.347870,326.296875 371.756134,326.610382 368.093506,324.121674 
	C364.348328,321.576935 363.187897,317.046906 365.130920,311.445282 
z"/>
<path fill="#1f1e1e" opacity="1.000000" stroke="none" 
	d="
M647.614746,288.126404 
	C651.886719,290.733734 653.957397,294.256042 652.880432,298.803589 
	C651.952637,302.721100 649.494385,305.727051 645.126038,306.276306 
	C641.141235,306.777313 638.023254,305.302032 635.794922,301.839722 
	C633.096924,297.647736 634.218384,293.723175 636.873840,290.269867 
	C639.514587,286.835632 643.284912,286.419434 647.614746,288.126404 
M639.131042,298.078949 
	C641.106750,299.965698 642.975220,299.813202 644.668274,297.720245 
	C645.656250,296.498932 646.359985,295.068085 645.323669,293.616760 
	C644.043396,291.823883 642.076965,292.003784 640.327576,292.634369 
	C637.908875,293.506256 637.695007,295.365204 639.131042,298.078949 
z"/>
<path fill="#1f1e1e" opacity="1.000000" stroke="none" 
	d="
M613.079346,287.379883 
	C620.149475,288.453918 620.913452,287.963013 624.793701,280.219086 
	C626.395691,283.976746 623.270630,289.120453 618.433350,290.687805 
	C613.482178,292.292053 608.995483,289.713135 607.586731,284.055206 
	C609.490601,285.233765 611.110046,286.236237 613.079346,287.379883 
z"/>
</svg>