<svg version="1.1" id="Layer_1" xmlns="http://www.w3.org/2000/svg" xmlns:xlink="http://www.w3.org/1999/xlink" x="0px" y="0px"
	 width="100%" viewBox="0 0 200 200" enable-background="new 0 0 200 200" xml:space="preserve">
<path fill="#FFFFFF" opacity="1.000000" stroke="none" 
	d="
M129.000000,201.000000 
	C86.000000,201.000000 43.500004,201.000000 1.000006,201.000000 
	C1.000004,134.333344 1.000004,67.666679 1.000002,1.000015 
	C67.666656,1.000010 134.333313,1.000010 200.999969,1.000005 
	C200.999985,67.666649 200.999985,134.333298 201.000000,200.999969 
	C177.166672,201.000000 153.333328,201.000000 129.000000,201.000000 
M59.997471,158.482864 
	C59.997471,162.421967 59.997471,166.361069 59.997471,170.343994 
	C74.972816,170.343994 89.382233,170.343994 103.755836,170.343994 
	C103.755836,123.312103 103.755836,76.574600 103.755836,29.772388 
	C89.056061,29.772388 74.638359,29.772388 59.997471,29.772388 
	C59.997471,72.533157 59.997471,115.010307 59.997471,158.482864 
M151.082565,63.030170 
	C136.987061,52.053818 122.891571,41.077465 108.229309,29.659769 
	C108.229309,76.978264 108.229309,123.326691 108.229309,170.395920 
	C122.183273,159.524307 135.593658,148.966614 149.160797,138.614380 
	C151.408661,136.899200 152.203018,135.200897 152.185394,132.455139 
	C152.072006,114.795219 152.157806,97.134140 152.109024,79.473633 
	C152.094360,74.163712 151.859482,68.854408 151.082565,63.030170 
z"/>
<path fill="#020202" opacity="1.000000" stroke="none" 
	d="
M59.997471,157.985168 
	C59.997471,115.010307 59.997471,72.533157 59.997471,29.772388 
	C74.638359,29.772388 89.056061,29.772388 103.755836,29.772388 
	C103.755836,76.574600 103.755836,123.312103 103.755836,170.343994 
	C89.382233,170.343994 74.972816,170.343994 59.997471,170.343994 
	C59.997471,166.361069 59.997471,162.421967 59.997471,157.985168 
z"/>
<path fill="#010101" opacity="1.000000" stroke="none" 
	d="
M151.404022,63.287498 
	C151.859482,68.854408 152.094360,74.163712 152.109024,79.473633 
	C152.157806,97.134140 152.072006,114.795219 152.185394,132.455139 
	C152.203018,135.200897 151.408661,136.899200 149.160797,138.614380 
	C135.593658,148.966614 122.183273,159.524307 108.229309,170.395920 
	C108.229309,123.326691 108.229309,76.978264 108.229309,29.659769 
	C122.891571,41.077465 136.987061,52.053818 151.404022,63.287498 
z"/>
</svg>