<svg version="1.1" id="Layer_1" xmlns="http://www.w3.org/2000/svg" xmlns:xlink="http://www.w3.org/1999/xlink" x="0px" y="0px"
	 width="100%" viewBox="0 0 182 190" enable-background="new 0 0 182 190" xml:space="preserve">
<path fill="#1b1a1a" opacity="1.000000" stroke="none" 
	d="
M183.000000,73.000000 
	C183.000000,112.666664 183.000000,151.833328 183.000000,191.000000 
	C122.333336,191.000000 61.666668,191.000000 1.000000,191.000000 
	C1.000000,127.666664 1.000000,64.333336 1.000000,1.000000 
	C61.666668,1.000000 122.333336,1.000000 183.000000,1.000000 
	C183.000000,24.833334 183.000000,48.666668 183.000000,73.000000 
M154.356277,83.167503 
	C162.012802,90.826340 162.792831,95.000099 156.955231,100.874947 
	C137.233017,120.722977 117.413559,140.475235 97.520767,160.152374 
	C92.119293,165.495300 87.908829,165.320160 82.437607,160.074783 
	C77.990501,155.811234 73.678215,151.406509 69.208656,147.167191 
	C66.874474,144.953247 64.130699,144.388672 61.705582,146.913483 
	C59.168839,149.554489 59.650837,152.199112 62.242451,154.744675 
	C67.231956,159.645523 72.027695,164.744141 77.033195,169.628098 
	C85.226524,177.622467 95.397926,177.907272 103.593880,169.732513 
	C124.821289,148.560013 145.880783,127.216301 166.797348,105.736465 
	C174.690857,97.630379 173.888702,86.976936 165.611313,79.247093 
	C158.918762,72.997246 152.389725,66.572456 145.710220,60.308388 
	C143.912933,58.622902 142.022095,56.752338 139.813675,55.889721 
	C138.327026,55.309032 135.438416,55.734558 134.567947,56.822674 
	C133.513992,58.140152 133.391449,60.772850 133.866623,62.572105 
	C134.284134,64.153038 135.988770,65.465302 137.286865,66.730034 
	C142.773941,72.076065 148.321487,77.360031 154.356277,83.167503 
M21.480206,115.019943 
	C24.474556,117.915718 27.509583,120.770912 30.451130,123.719360 
	C33.076942,126.351334 36.030483,127.975204 39.108749,124.933563 
	C42.397392,121.684052 40.691708,118.620766 37.834843,115.929138 
	C32.256260,110.673241 26.676947,105.417389 21.156601,100.100609 
	C15.246951,94.408890 14.992267,90.122910 20.730888,84.294998 
	C40.487850,64.230644 60.332832,44.252178 80.279938,24.377144 
	C82.047562,22.615913 84.684662,21.166492 87.119095,20.751053 
	C92.326767,19.862352 94.603241,16.070461 97.611740,12.577974 
	C88.541466,7.402359 81.228493,8.446504 73.709274,15.946717 
	C53.181946,36.422169 32.729305,56.972511 12.257551,77.503632 
	C11.200872,78.563370 10.168983,79.663544 9.248958,80.841286 
	C3.455976,88.257011 3.991101,97.743683 10.608260,104.396591 
	C14.014802,107.821541 17.518576,111.149773 21.480206,115.019943 
M94.391907,51.888134 
	C81.505257,64.676636 68.588432,77.434914 55.742825,90.264503 
	C47.491684,98.505348 47.247059,98.554054 38.654156,90.335587 
	C38.052563,89.760216 37.487228,89.143410 36.856010,88.603149 
	C34.411400,86.510765 31.767818,85.884827 29.298304,88.343231 
	C26.846987,90.783516 27.258316,93.509125 29.491220,95.883896 
	C32.341587,98.915337 35.310719,101.838470 38.295715,104.739288 
	C44.998425,111.252983 50.055149,111.228188 56.723408,104.572037 
	C67.097374,94.216896 77.404800,83.795128 87.758835,73.419975 
	C94.347481,66.817886 100.989250,60.268745 107.565445,53.654339 
	C109.816673,51.390038 110.677727,48.806087 108.148430,46.215679 
	C105.632996,43.639473 102.843552,43.727962 100.217712,46.114609 
	C98.371040,47.793053 96.663261,49.624302 94.391907,51.888134 
M130.431915,88.255142 
	C133.442352,90.462204 136.605316,92.492836 139.420227,94.926117 
	C142.216904,97.343658 144.948151,99.929543 148.411453,96.571289 
	C151.939804,93.149948 149.481705,90.267845 146.833710,87.680153 
	C144.333633,85.237007 141.826721,82.800026 139.283966,80.401527 
	C132.183105,73.703499 127.434692,73.717278 120.511810,80.604477 
	C105.168289,95.868927 89.869026,111.177902 74.566200,126.483192 
	C73.155952,127.893684 71.223709,129.204056 70.661942,130.928421 
	C70.037277,132.845856 69.920059,135.872375 71.034019,137.143768 
	C72.121719,138.385193 75.180153,138.626648 77.115341,138.182510 
	C78.849686,137.784454 80.358177,135.981094 81.751526,134.583572 
	C95.974190,120.318184 110.123810,105.979790 124.388153,91.756386 
	C125.845772,90.302956 127.917725,89.465630 130.431915,88.255142 
M153.668121,45.758221 
	C152.582764,44.728565 151.357300,43.807186 150.453247,42.637413 
	C149.624390,41.564938 149.142365,40.224415 148.507523,39.001999 
	C149.910355,38.348003 151.269730,37.261379 152.723572,37.115383 
	C158.807037,36.504475 162.858582,32.927353 162.976868,27.694883 
	C163.089890,22.695393 158.919540,18.197058 153.706406,17.695322 
	C148.227219,17.167982 144.213394,20.889244 143.095718,27.198883 
	C142.766632,29.056664 141.734619,30.789930 140.697159,33.406456 
	C134.156128,26.789122 128.661911,21.029951 122.934715,15.512597 
	C119.534752,12.237216 115.606270,12.373513 114.378868,16.035149 
	C113.692665,18.082218 114.656548,21.725096 116.226479,23.322664 
	C130.215347,37.557850 144.501419,51.501102 158.710770,65.519386 
	C161.249146,68.023628 164.058228,69.186897 166.928284,66.174149 
	C169.571213,63.399845 168.466202,60.594044 166.203156,58.239307 
	C162.285889,54.163284 158.208221,50.241405 153.668121,45.758221 
M56.351486,116.851463 
	C47.342892,125.960701 38.423817,135.161774 29.251684,144.103256 
	C27.372398,145.935287 24.675251,147.202271 22.127144,148.015259 
	C17.355860,149.537567 13.692546,154.194473 14.270748,158.796478 
	C14.868297,163.552475 18.923317,167.280045 23.747763,167.508255 
	C28.560331,167.735870 32.062523,164.381775 33.661377,159.367432 
	C34.756840,155.931839 36.466839,152.316452 38.917606,149.751831 
	C51.560242,136.521851 64.535240,123.609619 77.380112,110.572556 
	C78.720909,109.211700 79.968513,107.759018 81.402023,106.193092 
	C78.862404,103.837486 76.701843,101.833473 74.040070,99.364571 
	C68.144897,105.190125 62.497879,110.770454 56.351486,116.851463 
M112.524513,132.024185 
	C118.103600,126.837708 123.682678,121.651230 129.254227,116.471756 
	C126.005493,112.986115 123.821320,110.642662 121.447617,108.095863 
	C110.692024,118.822662 100.330742,129.112335 90.029289,139.461578 
	C87.522202,141.980301 87.328415,144.870087 89.957039,147.362991 
	C92.446922,149.724304 95.261314,149.091751 97.520004,146.931671 
	C102.444122,142.222534 107.200157,137.337646 112.524513,132.024185 
M75.795341,42.296089 
	C69.027657,49.057281 62.259975,55.818474 55.634109,62.437984 
	C58.254940,65.238594 60.438751,67.572212 62.298485,69.559525 
	C71.103973,60.955708 79.773056,52.500072 88.422501,44.024395 
	C90.890450,41.606033 90.834801,39.035648 88.517235,36.592304 
	C86.051376,33.992630 83.604134,34.409920 81.245575,36.880764 
	C79.641823,38.560860 77.951782,40.158581 75.795341,42.296089 
M24.399721,17.509989 
	C19.113552,17.647739 15.517772,20.187359 14.373682,25.362469 
	C13.491038,29.354971 14.527489,33.605274 18.315542,35.159878 
	C21.448097,36.445469 26.100927,36.936676 28.822924,35.460926 
	C31.340353,34.096085 33.389153,29.693508 33.494934,26.556263 
	C33.659164,21.685642 30.130302,18.547136 24.399721,17.509989 
M150.230576,148.274567 
	C148.963364,149.052780 147.500320,149.631256 146.465164,150.646149 
	C143.178772,153.868301 142.148346,157.714615 144.333893,161.952057 
	C146.578430,166.303848 150.434006,168.038208 155.124924,167.307663 
	C159.522385,166.622833 162.245621,163.681351 162.877777,159.327866 
	C163.548019,154.712234 161.422119,151.156906 157.264175,149.226517 
	C155.405472,148.363571 153.103500,148.455383 150.230576,148.274567 
M56.590752,156.907333 
	C54.812733,155.180756 53.116135,153.359222 51.238316,151.749039 
	C48.141544,149.093582 46.896126,152.465240 45.310349,153.916245 
	C43.905441,155.201752 41.429569,156.640976 43.991970,159.119324 
	C47.675068,162.681564 51.099430,166.584259 55.160435,169.643036 
	C56.568962,170.703949 60.388474,170.539383 61.568874,169.375229 
	C62.762558,168.197952 62.762188,164.798981 61.986900,162.904388 
	C61.111557,160.765289 58.789429,159.218246 56.590752,156.907333 
M101.601433,72.974823 
	C97.634285,76.744637 93.375565,80.268738 89.870491,84.427956 
	C88.760826,85.744698 88.780823,89.587296 89.888435,90.765480 
	C91.044952,91.995682 94.959511,92.441711 96.231499,91.427856 
	C100.694016,87.871010 104.537804,83.537903 108.884552,79.234085 
	C106.377380,76.855659 104.354065,74.936234 101.601433,72.974823 
z"/>
<path fill="#FFFFFF" opacity="1.000000" stroke="none" 
	d="
M154.101593,82.917099 
	C148.321487,77.360031 142.773941,72.076065 137.286865,66.730034 
	C135.988770,65.465302 134.284134,64.153038 133.866623,62.572105 
	C133.391449,60.772850 133.513992,58.140152 134.567947,56.822674 
	C135.438416,55.734558 138.327026,55.309032 139.813675,55.889721 
	C142.022095,56.752338 143.912933,58.622902 145.710220,60.308388 
	C152.389725,66.572456 158.918762,72.997246 165.611313,79.247093 
	C173.888702,86.976936 174.690857,97.630379 166.797348,105.736465 
	C145.880783,127.216301 124.821289,148.560013 103.593880,169.732513 
	C95.397926,177.907272 85.226524,177.622467 77.033195,169.628098 
	C72.027695,164.744141 67.231956,159.645523 62.242451,154.744675 
	C59.650837,152.199112 59.168839,149.554489 61.705582,146.913483 
	C64.130699,144.388672 66.874474,144.953247 69.208656,147.167191 
	C73.678215,151.406509 77.990501,155.811234 82.437607,160.074783 
	C87.908829,165.320160 92.119293,165.495300 97.520767,160.152374 
	C117.413559,140.475235 137.233017,120.722977 156.955231,100.874947 
	C162.792831,95.000099 162.012802,90.826340 154.101593,82.917099 
z"/>
<path fill="#FFFFFF" opacity="1.000000" stroke="none" 
	d="
M21.229311,114.770828 
	C17.518576,111.149773 14.014802,107.821541 10.608260,104.396591 
	C3.991101,97.743683 3.455976,88.257011 9.248958,80.841286 
	C10.168983,79.663544 11.200872,78.563370 12.257551,77.503632 
	C32.729305,56.972511 53.181946,36.422169 73.709274,15.946717 
	C81.228493,8.446504 88.541466,7.402359 97.611740,12.577974 
	C94.603241,16.070461 92.326767,19.862352 87.119095,20.751053 
	C84.684662,21.166492 82.047562,22.615913 80.279938,24.377144 
	C60.332832,44.252178 40.487850,64.230644 20.730888,84.294998 
	C14.992267,90.122910 15.246951,94.408890 21.156601,100.100609 
	C26.676947,105.417389 32.256260,110.673241 37.834843,115.929138 
	C40.691708,118.620766 42.397392,121.684052 39.108749,124.933563 
	C36.030483,127.975204 33.076942,126.351334 30.451130,123.719360 
	C27.509583,120.770912 24.474556,117.915718 21.229311,114.770828 
z"/>
<path fill="#FFFFFF" opacity="1.000000" stroke="none" 
	d="
M94.642685,51.637726 
	C96.663261,49.624302 98.371040,47.793053 100.217712,46.114609 
	C102.843552,43.727962 105.632996,43.639473 108.148430,46.215679 
	C110.677727,48.806087 109.816673,51.390038 107.565445,53.654339 
	C100.989250,60.268745 94.347481,66.817886 87.758835,73.419975 
	C77.404800,83.795128 67.097374,94.216896 56.723408,104.572037 
	C50.055149,111.228188 44.998425,111.252983 38.295715,104.739288 
	C35.310719,101.838470 32.341587,98.915337 29.491220,95.883896 
	C27.258316,93.509125 26.846987,90.783516 29.298304,88.343231 
	C31.767818,85.884827 34.411400,86.510765 36.856010,88.603149 
	C37.487228,89.143410 38.052563,89.760216 38.654156,90.335587 
	C47.247059,98.554054 47.491684,98.505348 55.742825,90.264503 
	C68.588432,77.434914 81.505257,64.676636 94.642685,51.637726 
z"/>
<path fill="#FFFFFF" opacity="1.000000" stroke="none" 
	d="
M130.068268,88.298775 
	C127.917725,89.465630 125.845772,90.302956 124.388153,91.756386 
	C110.123810,105.979790 95.974190,120.318184 81.751526,134.583572 
	C80.358177,135.981094 78.849686,137.784454 77.115341,138.182510 
	C75.180153,138.626648 72.121719,138.385193 71.034019,137.143768 
	C69.920059,135.872375 70.037277,132.845856 70.661942,130.928421 
	C71.223709,129.204056 73.155952,127.893684 74.566200,126.483192 
	C89.869026,111.177902 105.168289,95.868927 120.511810,80.604477 
	C127.434692,73.717278 132.183105,73.703499 139.283966,80.401527 
	C141.826721,82.800026 144.333633,85.237007 146.833710,87.680153 
	C149.481705,90.267845 151.939804,93.149948 148.411453,96.571289 
	C144.948151,99.929543 142.216904,97.343658 139.420227,94.926117 
	C136.605316,92.492836 133.442352,90.462204 130.068268,88.298775 
z"/>
<path fill="#FFFFFF" opacity="1.000000" stroke="none" 
	d="
M153.932983,46.006546 
	C158.208221,50.241405 162.285889,54.163284 166.203156,58.239307 
	C168.466202,60.594044 169.571213,63.399845 166.928284,66.174149 
	C164.058228,69.186897 161.249146,68.023628 158.710770,65.519386 
	C144.501419,51.501102 130.215347,37.557850 116.226479,23.322664 
	C114.656548,21.725096 113.692665,18.082218 114.378868,16.035149 
	C115.606270,12.373513 119.534752,12.237216 122.934715,15.512597 
	C128.661911,21.029951 134.156128,26.789122 140.697159,33.406456 
	C141.734619,30.789930 142.766632,29.056664 143.095718,27.198883 
	C144.213394,20.889244 148.227219,17.167982 153.706406,17.695322 
	C158.919540,18.197058 163.089890,22.695393 162.976868,27.694883 
	C162.858582,32.927353 158.807037,36.504475 152.723572,37.115383 
	C151.269730,37.261379 149.910355,38.348003 148.507523,39.001999 
	C149.142365,40.224415 149.624390,41.564938 150.453247,42.637413 
	C151.357300,43.807186 152.582764,44.728565 153.932983,46.006546 
z"/>
<path fill="#FFFFFF" opacity="1.000000" stroke="none" 
	d="
M56.601173,116.601128 
	C62.497879,110.770454 68.144897,105.190125 74.040070,99.364571 
	C76.701843,101.833473 78.862404,103.837486 81.402023,106.193092 
	C79.968513,107.759018 78.720909,109.211700 77.380112,110.572556 
	C64.535240,123.609619 51.560242,136.521851 38.917606,149.751831 
	C36.466839,152.316452 34.756840,155.931839 33.661377,159.367432 
	C32.062523,164.381775 28.560331,167.735870 23.747763,167.508255 
	C18.923317,167.280045 14.868297,163.552475 14.270748,158.796478 
	C13.692546,154.194473 17.355860,149.537567 22.127144,148.015259 
	C24.675251,147.202271 27.372398,145.935287 29.251684,144.103256 
	C38.423817,135.161774 47.342892,125.960701 56.601173,116.601128 
z"/>
<path fill="#FFFFFF" opacity="1.000000" stroke="none" 
	d="
M112.274696,132.274384 
	C107.200157,137.337646 102.444122,142.222534 97.520004,146.931671 
	C95.261314,149.091751 92.446922,149.724304 89.957039,147.362991 
	C87.328415,144.870087 87.522202,141.980301 90.029289,139.461578 
	C100.330742,129.112335 110.692024,118.822662 121.447617,108.095863 
	C123.821320,110.642662 126.005493,112.986115 129.254227,116.471756 
	C123.682678,121.651230 118.103600,126.837708 112.274696,132.274384 
z"/>
<path fill="#FFFFFF" opacity="1.000000" stroke="none" 
	d="
M76.047836,42.044613 
	C77.951782,40.158581 79.641823,38.560860 81.245575,36.880764 
	C83.604134,34.409920 86.051376,33.992630 88.517235,36.592304 
	C90.834801,39.035648 90.890450,41.606033 88.422501,44.024395 
	C79.773056,52.500072 71.103973,60.955708 62.298485,69.559525 
	C60.438751,67.572212 58.254940,65.238594 55.634109,62.437984 
	C62.259975,55.818474 69.027657,49.057281 76.047836,42.044613 
z"/>
<path fill="#FFFFFF" opacity="1.000000" stroke="none" 
	d="
M24.772430,17.541836 
	C30.130302,18.547136 33.659164,21.685642 33.494934,26.556263 
	C33.389153,29.693508 31.340353,34.096085 28.822924,35.460926 
	C26.100927,36.936676 21.448097,36.445469 18.315542,35.159878 
	C14.527489,33.605274 13.491038,29.354971 14.373682,25.362469 
	C15.517772,20.187359 19.113552,17.647739 24.772430,17.541836 
z"/>
<path fill="#FFFFFF" opacity="1.000000" stroke="none" 
	d="
M150.616638,148.194229 
	C153.103500,148.455383 155.405472,148.363571 157.264175,149.226517 
	C161.422119,151.156906 163.548019,154.712234 162.877777,159.327866 
	C162.245621,163.681351 159.522385,166.622833 155.124924,167.307663 
	C150.434006,168.038208 146.578430,166.303848 144.333893,161.952057 
	C142.148346,157.714615 143.178772,153.868301 146.465164,150.646149 
	C147.500320,149.631256 148.963364,149.052780 150.616638,148.194229 
z"/>
<path fill="#FFFFFF" opacity="1.000000" stroke="none" 
	d="
M56.843628,157.160522 
	C58.789429,159.218246 61.111557,160.765289 61.986900,162.904388 
	C62.762188,164.798981 62.762558,168.197952 61.568874,169.375229 
	C60.388474,170.539383 56.568962,170.703949 55.160435,169.643036 
	C51.099430,166.584259 47.675068,162.681564 43.991970,159.119324 
	C41.429569,156.640976 43.905441,155.201752 45.310349,153.916245 
	C46.896126,152.465240 48.141544,149.093582 51.238316,151.749039 
	C53.116135,153.359222 54.812733,155.180756 56.843628,157.160522 
z"/>
<path fill="#FFFFFF" opacity="1.000000" stroke="none" 
	d="
M101.966095,72.995819 
	C104.354065,74.936234 106.377380,76.855659 108.884552,79.234085 
	C104.537804,83.537903 100.694016,87.871010 96.231499,91.427856 
	C94.959511,92.441711 91.044952,91.995682 89.888435,90.765480 
	C88.780823,89.587296 88.760826,85.744698 89.870491,84.427956 
	C93.375565,80.268738 97.634285,76.744637 101.966095,72.995819 
z"/>
</svg>