<svg version="1.1" id="Layer_1" xmlns="http://www.w3.org/2000/svg" xmlns:xlink="http://www.w3.org/1999/xlink" x="0px" y="0px"
	 width="100%" viewBox="0 0 272 272" enable-background="new 0 0 272 272" xml:space="preserve">
<path fill="#FFFFFF" opacity="1.000000" stroke="none" 
	d="
M136.206711,155.189941 
	C126.614227,165.382294 116.288734,174.523331 109.737144,186.768005 
	C104.083412,197.334641 100.256355,208.348969 102.184784,220.668686 
	C104.570206,235.907822 112.922531,246.474045 127.491516,251.207596 
	C141.832535,255.867081 157.990433,249.960785 167.596252,237.679245 
	C171.587585,232.576126 174.110291,226.833145 174.727325,220.379196 
	C175.141556,216.046555 176.292236,213.456757 181.624771,213.535248 
	C194.568420,213.725739 194.903442,213.340942 191.827698,226.642059 
	C186.615448,249.182358 172.203140,263.762756 149.378159,268.840790 
	C118.847366,275.633179 90.129791,256.541718 85.083527,225.741348 
	C81.529404,204.048462 88.134537,184.551331 101.254707,167.258728 
	C110.449471,155.139908 121.597321,144.798965 132.523010,134.284119 
	C140.331238,126.769516 148.166626,119.264000 154.586746,110.487808 
	C166.671478,93.968140 171.646164,75.600716 167.615143,55.348110 
	C164.074219,37.557766 147.278397,24.989531 129.745331,26.403717 
	C111.513046,27.874302 96.491066,42.881214 95.290924,60.823563 
	C94.849541,67.422424 94.247520,67.925659 86.780579,67.937469 
	C77.514725,67.952126 76.708611,67.050545 77.744164,57.830887 
	C80.837418,30.291260 105.710228,8.248704 133.164642,8.716649 
	C160.991943,9.190951 183.423767,31.476154 185.524673,59.145168 
	C187.790955,88.991806 177.920837,113.605392 156.740952,134.226044 
	C149.819199,140.965057 143.207214,148.022247 136.206711,155.189941 
z"/>
<path fill="#FFFFFF" opacity="1.000000" stroke="none" 
	d="
M132.634933,107.851372 
	C125.153763,112.372154 117.034691,112.768341 109.117821,112.863953 
	C92.482048,113.064842 75.816895,113.578247 59.200603,112.427261 
	C49.066311,111.725273 42.012424,105.584854 39.864540,96.551453 
	C37.834297,88.012802 41.952080,78.464188 49.902271,73.274483 
	C52.995926,71.255013 56.370419,69.827042 59.893326,68.801620 
	C66.016144,67.019424 67.003716,67.702682 67.071152,74.034996 
	C67.128334,79.404495 67.870331,84.599472 69.515228,89.730759 
	C70.636536,93.228706 72.435204,94.880058 76.337402,94.711716 
	C90.289383,94.109810 104.284653,95.569374 118.222374,93.846397 
	C135.709824,91.684608 149.242386,76.243744 147.174576,58.847828 
	C147.107269,58.281631 147.500061,57.660748 147.708817,56.963711 
	C158.911057,66.563126 150.234299,95.883858 132.634933,107.851372 
M57.168930,96.169342 
	C61.922558,97.702530 65.123703,96.393921 65.624176,92.568756 
	C66.001305,89.686340 65.154694,87.341629 62.190735,86.084526 
	C59.483990,84.936523 57.190083,85.460869 55.605446,87.813560 
	C53.716339,90.618286 53.650139,93.436501 57.168930,96.169342 
z"/>
<path fill="#FFFFFF" opacity="1.000000" stroke="none" 
	d="
M119.323273,216.181961 
	C116.096001,195.077652 130.208420,175.340286 151.342651,170.783905 
	C154.932632,170.009918 158.532852,169.639465 162.224594,169.659653 
	C177.886169,169.745377 193.548477,169.688751 209.210526,169.695740 
	C223.918091,169.702301 232.421173,176.369568 233.796738,188.953537 
	C235.004791,200.005127 226.340240,210.353058 213.573730,213.105591 
	C206.745514,214.577805 205.989960,213.980484 205.963928,207.089127 
	C205.959518,205.922867 205.982758,204.755814 205.947845,203.590485 
	C205.541321,190.022903 203.804337,188.303543 190.500778,188.303574 
	C179.004715,188.303604 167.504028,188.106613 156.013748,188.366791 
	C140.679779,188.714020 126.824799,199.755707 123.671738,213.602234 
	C123.102043,216.104004 123.852219,218.872147 122.442741,221.484482 
	C119.523872,220.637360 119.873947,218.387665 119.323273,216.181961 
M209.198883,186.690262 
	C207.198074,189.002441 206.995621,191.463562 208.903671,193.859802 
	C210.271606,195.577698 211.956329,196.859665 214.437027,196.042542 
	C218.025711,194.860519 219.545059,192.498322 218.394348,188.833618 
	C217.218277,185.088089 213.944412,184.161011 209.198883,186.690262 
z"/>
<path fill="#FFFFFF" opacity="1.000000" stroke="none" 
	d="
M209.830444,157.309021 
	C198.934006,157.235153 188.497330,157.483292 177.686172,157.141769 
	C178.696091,153.307632 180.718262,153.163269 182.339737,152.521286 
	C191.002579,149.091492 199.706573,145.763962 208.341019,142.264603 
	C219.408508,137.779129 226.398026,129.794510 227.635315,117.743744 
	C228.968658,104.757668 223.558411,94.780540 212.589050,87.852318 
	C207.413345,84.583351 204.474197,74.841049 207.258926,69.609169 
	C208.636429,67.021164 210.594284,68.137955 212.444138,68.746880 
	C241.323669,78.253464 254.014038,111.717491 238.838516,138.419403 
	C232.534073,149.512314 223.662689,156.818069 209.830444,157.309021 
z"/>
<path fill="#FFFFFF" opacity="1.000000" stroke="none" 
	d="
M63.796906,140.770981 
	C54.456772,145.846344 48.693390,153.031296 47.126369,163.427505 
	C45.357010,175.166122 49.494205,184.737427 58.957863,191.090439 
	C64.227425,194.627914 65.654366,198.273071 65.453575,204.066635 
	C65.084969,214.702057 65.136589,214.845825 55.475487,210.373489 
	C26.720448,197.062164 20.387501,154.718719 43.980553,133.629868 
	C49.909828,128.329926 56.759392,125.246048 64.738907,125.070847 
	C73.556686,124.877228 82.379112,124.886406 91.199684,124.838661 
	C92.521484,124.831505 93.904625,124.839783 95.176392,126.910217 
	C85.271973,132.573471 74.331322,135.808472 63.796906,140.770981 
z"/>
<path fill="#FFFFFF" opacity="1.000000" stroke="none" 
	d="
M86.183273,162.149704 
	C83.170509,166.792435 81.044502,171.485580 78.967903,176.198776 
	C77.209274,180.190277 74.897240,180.307938 71.648361,177.709839 
	C64.968674,172.368164 63.897930,163.474701 70.078873,157.658371 
	C77.131737,151.021561 86.530853,149.059631 95.186546,145.701080 
	C95.562073,146.112808 95.937599,146.524551 96.313126,146.936279 
	C92.992813,151.900421 89.672493,156.864578 86.183273,162.149704 
z"/>
<path fill="#FFFFFF" opacity="1.000000" stroke="none" 
	d="
M203.779663,124.792603 
	C196.514801,129.855728 188.346130,131.695526 180.930374,135.379105 
	C179.757889,132.616226 180.974075,131.697098 181.709427,130.673187 
	C187.073288,123.204369 191.609909,115.275497 194.729828,106.614456 
	C196.229507,102.451241 198.525101,102.235664 201.992569,104.245598 
	C209.605927,108.658714 210.457520,116.547600 203.779663,124.792603 
z"/>
<path fill="#FFFFFF" opacity="1.000000" stroke="none" 
	d="
M116.438370,50.439472 
	C119.126335,48.352482 121.640488,46.757061 124.856934,47.004215 
	C130.121521,47.408756 134.000870,50.891113 134.795074,55.897617 
	C135.450150,60.027039 132.334793,65.211838 127.959267,66.996544 
	C125.966316,67.809433 123.863655,68.111786 121.638168,68.044945 
	C111.323723,67.735138 109.471268,64.799408 113.686516,54.992275 
	C114.334061,53.485729 115.333260,52.130337 116.438370,50.439472 
z"/>
<path fill="#FFFFFF" opacity="1.000000" stroke="none" 
	d="
M143.584869,233.610535 
	C137.457642,231.278320 134.948013,227.474197 135.754715,222.188187 
	C136.534164,217.080765 141.197357,213.265305 146.813690,213.230392 
	C148.136810,213.222153 149.458801,213.525101 150.786087,213.611008 
	C158.553375,214.113754 159.565613,215.526398 157.549011,223.110840 
	C155.619324,230.368454 151.468964,233.609650 143.584869,233.610535 
z"/>
</svg>